<svg id="Capa_1" enable-background="new 0 0 510 510" height="512" viewBox="0 0 510 510" width="512" xmlns="http://www.w3.org/2000/svg"><g><path d="m510 149.993v254.986c0 33.153-26.875 60.028-60.028 60.028h-196.972v-315.014z" fill="#e1ebf0"/><path d="m253 149.993v315.014h-192.972c-33.152 0-60.028-26.875-60.028-60.028v-254.986z" fill="#fff5f5"/><path d="m510 149.993h-257l-22.33-55.333 22.33-49.667h152z" fill="#2fc0f0"/><path d="m253 44.993v105h-253v-105h61l15 9.121 15-9.121h30l15 9.912 15-9.912h30l15 11.692 15-11.692z" fill="#9ee2f8"/><path d="m61 44.993h30v59.771h-30z" fill="#b40042"/><path d="m121 44.993h30v59.886h-30z" fill="#ffda44"/><path d="m181 44.993h30v59.943h-30z" fill="#00cc76"/><path d="m405 44.993h105v105h-105z" fill="#2682ff"/><g><path d="m135 310.086h-42.172l31.247-84.815-28.15-10.371-35.925 97.511v27.675h75v60h30v-60-30-30h-30z" fill="#ff415b"/><path d="m420 280.086v30h-42.172l31.247-84.815-28.15-10.371-35.925 97.511v27.675h75v60h30v-120z" fill="#b40042"/><path d="m253 245.173 6.681-14.675-6.681-15.375c-29.41 1.05-53 25.31-53 54.96v75c0 29.66 23.59 53.91 53 54.96l8.264-14.995-8.264-15.055c-12.86-1.01-23-11.79-23-24.91v-75c0-13.11 10.14-23.9 23-24.91z" fill="#ff415b"/><path d="m310 270.083v75c0 30.33-24.67 55-55 55-.67 0-1.33-.01-2-.04v-30.05c.66.06 1.33.09 2 .09 13.79 0 25-11.21 25-25v-75c0-13.78-11.21-25-25-25-.67 0-1.34.03-2 .09v-14.411-15.639c.67-.03 1.33-.04 2-.04 30.33 0 55 24.68 55 55z" fill="#b40042"/></g></g></svg>